<svg width="156" height="54" viewBox="0 0 156 54" fill="none" xmlns="http://www.w3.org/2000/svg">
<path d="M74.054 1.03202C71.2906 2.11878 70.8029 2.59589 64.3549 10.7333C58.2321 18.4731 58.0966 18.6322 57.5818 20.196C56.0647 24.8081 57.8257 29.7118 61.9979 32.3094C64.4904 33.8998 64.8155 33.9263 77.6302 33.9263C88.6026 33.9263 89.4424 33.8998 91.0409 33.3961C97.0554 31.5407 100.008 24.8876 97.3263 19.3213C96.8657 18.3936 94.9151 15.5839 92.9644 13.1189C84.5387 2.41035 84.2678 2.14528 81.396 1.08503C79.4995 0.395872 75.7337 0.342859 74.054 1.03202ZM81.8837 2.2248C83.8343 3.15252 84.7555 4.15976 90.9867 12.0586C95.6466 17.943 96.5135 19.1888 96.9741 20.6466C98.1933 24.4635 97.1908 28.0684 94.1294 30.6925C92.6935 31.9383 90.4178 32.866 88.8464 32.866C87.8169 32.866 87.7898 32.8395 87.8982 32.1238C87.9794 31.7263 88.4129 28.36 88.8464 24.6491C89.307 20.9382 89.7404 17.4394 89.8488 16.8828L90.0114 15.902H77.6302H65.2761L65.4115 16.8828C65.9805 20.6466 67.4434 31.9118 67.4434 32.3889C67.4434 32.8925 67.3351 32.919 65.9805 32.7865C63.1358 32.4949 60.3723 30.4805 58.9094 27.5913C57.4464 24.7286 57.8257 20.6201 59.8034 18.049C64.5988 11.7936 70.9655 3.94771 71.724 3.31156C72.2659 2.88746 73.5121 2.25131 74.4875 1.90673C76.8445 1.11154 79.7976 1.21757 81.8837 2.2248Z" fill="black"/>
<path d="M5.1039 43.6541C3.09906 48.5577 1.06714 52.6132 0.552384 52.7987C-0.504217 53.1698 -0.0165549 53.4084 1.77154 53.3553C3.72219 53.3023 4.15567 53.1698 3.09906 52.9047C2.28629 52.6927 2.2592 52.2686 2.9636 50.8903L3.50545 49.83H5.40191C7.24419 49.83 7.32547 49.8565 7.59639 50.5457C8.19243 52.1095 8.19243 52.6927 7.59639 52.8782C6.43142 53.2228 7.10873 53.4084 9.60123 53.4084C12.0937 53.4084 12.8523 53.1963 11.5248 52.8517C10.9829 52.7192 10.5495 51.924 8.73427 47.4975C7.37965 44.1577 6.43142 42.2492 6.1605 42.1962C5.88958 42.1432 5.53738 42.5938 5.1039 43.6541ZM6.18759 47.1529C6.48561 47.8686 6.75653 48.5312 6.75653 48.6107C6.75653 48.6902 6.1605 48.7698 5.40191 48.7698C4.67042 48.7698 4.0473 48.6637 4.0473 48.5312C4.0473 48.0806 5.15808 45.8541 5.37482 45.8541C5.51028 45.8541 5.86248 46.4372 6.18759 47.1529Z" fill="black"/>
<path d="M12.9876 42.4083C12.9876 42.5143 13.2856 42.6998 13.6378 42.7794C14.4506 42.9649 14.6132 43.7336 14.6132 47.7095C14.6132 51.7915 14.4506 52.4806 13.4753 52.8517C12.229 53.3023 12.6083 53.4614 14.9112 53.3819C17.3224 53.2758 17.7288 53.1698 16.5909 52.8782C16.1845 52.7987 15.751 52.5602 15.6427 52.4011C15.5343 52.2156 15.4259 50.4397 15.4259 48.4252C15.4259 45.6155 15.5072 44.7673 15.751 44.8468C16.1032 44.9794 18.6499 47.9216 21.4133 51.4734C22.3074 52.6132 23.1473 53.5409 23.2827 53.5409C23.4453 53.5409 23.5536 51.5529 23.5536 48.5577C23.5536 44.0517 23.6078 43.495 24.0413 43.1239C24.3122 42.8589 24.6915 42.6733 24.8541 42.6733C25.0437 42.6733 25.1792 42.5673 25.1792 42.4348C25.1792 42.3022 24.2039 42.1962 23.0118 42.1962C21.8197 42.2227 20.8444 42.3022 20.8444 42.3818C20.8444 42.4878 21.1966 42.6998 21.6301 42.8589C22.3616 43.1239 22.4158 43.2565 22.5241 44.6878C22.5512 45.5625 22.5512 46.9143 22.4699 47.7095L22.3345 49.1674L20.0316 46.3842C18.7583 44.8468 17.512 43.3095 17.2682 42.9384C16.8889 42.3022 16.6722 42.2492 14.9112 42.2227C13.8546 42.1962 12.9876 42.2757 12.9876 42.4083Z" fill="black"/>
<path d="M29.9205 42.5143C27.9698 43.3625 26.5339 45.695 26.5339 47.9216C26.5339 49.618 27.0487 50.7842 28.3491 51.977C30.8416 54.3096 34.4449 53.912 36.4497 51.1023C38.1566 48.7433 37.8314 45.7216 35.6911 43.6806C34.1469 42.1962 31.7357 41.7191 29.9205 42.5143ZM33.5779 43.6806C35.366 45.4565 35.4202 50.3601 33.6592 52.2686C33.1716 52.8252 32.0337 52.8782 31.0313 52.4276C28.8639 51.4734 28.2949 44.9794 30.2456 43.4685C31.2751 42.6733 32.6297 42.7794 33.5779 43.6806Z" fill="black"/>
<path d="M38.8879 42.5673C38.617 43.23 38.6983 44.5288 38.9963 44.5288C39.1588 44.5288 39.2672 44.3962 39.2672 44.2637C39.2672 44.1047 39.511 43.7601 39.8091 43.4685C40.4864 42.8059 42.3828 42.7263 42.6267 43.3625C42.7079 43.601 42.7892 45.6685 42.7892 47.9746C42.7892 51.4469 42.7079 52.2421 42.3557 52.5867C42.139 52.8252 41.8139 53.0108 41.6513 53.0108C41.4888 53.0108 41.4075 53.0903 41.5159 53.1698C41.7868 53.4349 46.3112 53.4349 46.3112 53.1963C46.3112 53.0638 46.0674 52.9047 45.7694 52.8252C45.2275 52.6927 45.2275 52.5071 45.2817 47.8685L45.363 43.0709L46.6905 43.0974C47.4491 43.0974 48.0722 43.23 48.1264 43.389C48.3161 43.9191 48.9663 44.6613 49.1559 44.5023C49.2372 44.3962 49.2372 43.8396 49.1288 43.23L48.9392 42.1432H44.0084C39.7278 42.1432 39.0234 42.1962 38.8879 42.5673Z" fill="black"/>
<path d="M50.6462 42.3553C50.6462 42.4613 50.8901 42.6998 51.1881 42.8854C51.7028 43.177 51.7299 43.495 51.7299 47.7095C51.7299 51.8975 51.7028 52.2421 51.1881 52.6662C50.8901 52.9313 50.6462 53.1963 50.6462 53.2758C50.6462 53.4614 55.0081 53.3554 55.1978 53.1433C55.279 53.0638 55.1165 52.9313 54.7914 52.8517C54.3308 52.7192 54.1953 52.4276 54.0599 50.8638C53.7619 48.0011 53.816 47.9481 56.2814 48.0276L58.3676 48.1071L58.4488 49.83C58.5572 51.977 58.3676 52.6662 57.6902 52.8782C56.5795 53.2228 57.2297 53.4084 59.37 53.3554C60.6162 53.3289 61.7541 53.2758 61.8896 53.2758C62.0521 53.2758 61.9167 53.1168 61.6186 52.9578C61.3206 52.7987 60.9955 52.5337 60.8871 52.3746C60.7788 52.2156 60.6704 50.1481 60.6704 47.789C60.6704 44.2372 60.7517 43.442 61.1039 43.0974C61.3206 42.8589 61.6457 42.6733 61.7812 42.6733C61.9167 42.6733 62.025 42.5408 62.025 42.4083C62.025 42.2492 61.0226 42.1432 59.5867 42.1432C57.2839 42.1432 56.4711 42.4348 57.6902 42.8059C58.3676 43.0179 58.5572 43.7336 58.4488 45.6155L58.3676 47.0469L56.2814 47.1264L54.2224 47.2059L54.0328 46.3842C53.7348 45.0324 54.1412 42.9914 54.7372 42.8059C55.9022 42.4348 55.1165 42.1432 52.9491 42.1432C51.6757 42.1432 50.6462 42.2227 50.6462 42.3553Z" fill="black"/>
<path d="M63.488 42.5408C63.786 42.7529 64.1111 42.9384 64.2466 42.9384C64.3549 42.9384 64.4633 45.1384 64.4633 47.8155C64.4633 52.4806 64.4362 52.7192 63.9215 52.8782C63.6235 52.9578 63.3796 53.1698 63.3796 53.3288C63.3796 53.5144 63.9757 53.5674 65.2219 53.4614C66.2243 53.3553 68.0937 53.2758 69.367 53.2758H71.7241L72.1304 52.03C72.3743 51.3409 72.5097 50.7047 72.4285 50.6517C72.3472 50.5722 71.995 50.8903 71.6157 51.3409C70.9113 52.2421 68.7981 52.8782 67.5518 52.5867C66.9287 52.4276 66.9016 52.3216 66.9016 50.3336V48.2396H68.2562C69.3128 48.2396 69.665 48.3457 69.8818 48.7698C70.3965 49.6975 70.6946 49.3529 70.6946 47.8421C70.6946 46.3047 70.5049 46.0396 69.936 46.9143C69.7192 47.2854 69.3128 47.4445 68.6897 47.4445C66.9829 47.4445 66.9016 47.3384 66.9016 45.0324V42.9384H68.1479C69.5296 42.9384 70.3424 43.2565 71.0197 44.1047C71.6428 44.8468 71.8866 44.5023 71.5886 43.283L71.3448 42.2757L67.1725 42.2227C63.4067 42.1697 63.0274 42.1962 63.488 42.5408Z" fill="black"/>
<path d="M73.9456 42.3818C73.9456 42.5143 74.1894 42.7263 74.4874 42.8059C75.0022 42.9649 75.0293 43.2035 75.0293 47.736C75.0293 52.1891 75.0022 52.5072 74.4874 52.7987C74.1894 52.9843 73.9456 53.1963 73.9456 53.2758C73.9456 53.3553 75.0563 53.4084 76.3839 53.4349C78.7409 53.4614 79.5266 53.1963 78.1449 52.8517C77.4947 52.6927 77.4676 52.6132 77.4676 50.5987C77.4676 48.0011 77.8469 47.8686 79.2015 50.0156C80.7457 52.5337 82.1274 53.5409 83.9968 53.5409C85.0263 53.5409 84.945 53.2228 83.7259 52.4276C83.2111 52.0831 82.2358 51.0493 81.5856 50.0951L80.3935 48.3987L81.0438 47.8951C82.7777 46.5167 83.1299 44.5818 81.8836 43.4155C81.4501 43.0444 80.6374 42.5938 80.0413 42.4348C78.7138 42.0902 73.9456 42.0372 73.9456 42.3818ZM79.2015 43.2035C79.9871 43.495 80.3393 44.7673 80.0684 46.2252C79.933 46.9143 79.6891 47.2059 79.066 47.418C77.6843 47.8951 77.4676 47.63 77.4676 45.3505C77.4676 42.8059 77.6301 42.6203 79.2015 43.2035Z" fill="black"/>
<path d="M89.6592 42.3818C89.6592 42.5143 89.903 42.6998 90.1739 42.8059C90.5261 42.9119 91.6369 44.7673 93.4521 48.2396C94.9422 51.1553 96.2697 53.5409 96.3781 53.5409C96.4864 53.5409 97.0012 52.7457 97.516 51.7915C98.8977 49.2469 98.9519 49.2204 100.09 51.3939C100.604 52.4276 101.201 53.2758 101.39 53.2758C101.58 53.2758 102.934 50.9963 104.397 48.2131C106.294 44.6083 107.242 43.0709 107.703 42.8854C108.841 42.3818 108.407 42.1432 106.321 42.1432C105.156 42.1432 104.289 42.2492 104.289 42.4083C104.289 42.5408 104.533 42.6733 104.804 42.6733C105.075 42.6733 105.4 42.8589 105.481 43.0709C105.644 43.495 102.42 50.0951 102.067 50.0951C101.797 50.0951 100.496 47.577 100.496 47.0469C100.496 46.1722 102.149 43.4155 102.934 42.9914C103.395 42.7529 103.747 42.4613 103.747 42.3288C103.747 42.2227 102.826 42.1432 101.715 42.1432C100.55 42.1432 99.6833 42.2492 99.6833 42.4083C99.6833 42.5408 99.9272 42.6733 100.225 42.6733C100.523 42.6733 100.848 42.8324 100.93 43.0444C101.092 43.442 100.09 45.589 99.7375 45.589C99.4666 45.589 98.5997 43.8661 98.5997 43.3095C98.5997 43.0974 98.7893 42.8589 99.006 42.7794C99.9272 42.4083 98.9519 42.1432 96.8116 42.1432C94.5087 42.1432 94.021 42.3288 95.1589 42.8059C95.5111 42.9649 96.2697 44.0252 97.0825 45.589L98.41 48.0806L97.8953 49.0348C97.6243 49.5385 97.245 49.9626 97.0554 49.9626C96.8657 49.9626 95.9717 48.4252 95.0235 46.5698C93.4521 43.4155 93.3708 43.1239 93.8043 42.8324C94.0481 42.6468 94.2649 42.4083 94.2649 42.3022C94.2649 42.2227 93.2354 42.1432 91.962 42.1432C90.6887 42.1432 89.6592 42.2492 89.6592 42.3818Z" fill="black"/>
<path d="M112.552 42.5143C111.55 42.9384 110.06 44.5553 109.545 45.7481C109.057 46.8613 109.057 48.7963 109.518 49.9095C111.171 53.7264 115.641 54.6807 118.54 51.8445C121.384 49.0878 120.599 44.4492 116.995 42.6733C115.803 42.0637 113.771 41.9842 112.552 42.5143ZM116.156 43.4685C117.158 44.2902 117.564 45.6155 117.564 48.1071C117.564 50.5192 116.995 52.2421 116.074 52.5867C115.072 52.9577 113.988 52.7457 113.23 52.0035C112.254 51.0493 111.875 49.6975 111.875 47.2324C111.875 45.1649 112.335 43.6806 113.148 43.23C113.934 42.7794 115.478 42.9119 116.156 43.4685Z" fill="black"/>
<path d="M121.628 42.3817C121.628 42.5143 121.872 42.7263 122.17 42.8058C122.685 42.9649 122.712 43.2034 122.712 47.842C122.712 52.4806 122.685 52.7192 122.17 52.8782C121.059 53.2228 121.709 53.4083 124.066 53.4349C126.424 53.4614 127.209 53.1963 125.827 52.8517C125.177 52.6927 125.15 52.6132 125.15 50.6252C125.15 49.4589 125.259 48.4517 125.421 48.3722C125.557 48.2926 126.207 49.0348 126.857 50.0155C128.266 52.1095 128.997 52.8252 130.271 53.2493C131.327 53.5939 132.736 53.6469 132.736 53.3288C132.736 53.1963 132.33 52.9047 131.815 52.6662C131.219 52.4011 130.352 51.5264 129.485 50.3071L128.103 48.3722L128.726 47.8685C130.46 46.5167 130.812 44.5818 129.566 43.4155C129.133 43.0444 128.32 42.5938 127.724 42.4348C126.396 42.0902 121.628 42.0372 121.628 42.3817ZM127.399 43.442C127.724 43.7601 127.968 45.695 127.751 46.4637C127.643 46.8878 127.29 47.2324 126.776 47.4179C125.367 47.895 125.15 47.63 125.15 45.3504C125.15 44.2107 125.231 43.2034 125.34 43.0974C125.584 42.8589 127.074 43.1239 127.399 43.442Z" fill="black"/>
<path d="M134.09 42.3818C134.09 42.5143 134.334 42.7263 134.632 42.8059C135.147 42.9649 135.174 43.2035 135.174 47.8421C135.174 52.4806 135.147 52.7192 134.632 52.8782C133.549 53.2228 134.063 53.6204 135.337 53.4349C136.041 53.3554 137.91 53.2758 139.536 53.2758H142.462L142.814 52.0035C143.058 51.2083 143.112 50.7312 142.923 50.6517C142.787 50.5987 142.597 50.6782 142.543 50.8373C142.164 52.0035 140.024 52.8782 138.29 52.5337L137.612 52.4276V47.7095C137.612 43.2035 137.64 42.9649 138.154 42.8059C139.346 42.4348 138.561 42.1432 136.393 42.1432C135.12 42.1432 134.09 42.2492 134.09 42.3818Z" fill="black"/>
<path d="M144.657 42.3818C144.657 42.5143 144.9 42.7263 145.198 42.8059C145.713 42.9649 145.74 43.2035 145.74 47.8421V52.6927L145.063 52.8517C143.437 53.2493 144.657 53.4879 148.124 53.4349C151.511 53.3819 151.944 53.3288 153.028 52.7457C157.58 50.2276 156.713 43.495 151.728 42.4348C150.021 42.0902 144.657 42.0372 144.657 42.3818ZM152.107 43.7336C153.001 44.5553 153.407 45.9071 153.38 47.9216C153.353 50.0686 152.947 51.2348 151.944 52.083C151.105 52.7722 150.509 52.8782 149.019 52.5867L148.179 52.4011V48.0011C148.179 44.8203 148.287 43.4685 148.531 43.23C149.046 42.6998 151.321 43.0179 152.107 43.7336Z" fill="black"/>
</svg>
